<svg width="1467" height="445" viewBox="0 0 1467 445" fill="none" xmlns="http://www.w3.org/2000/svg">
<path d="M1180.65 56.94C1178.15 56.4943 1175.47 55.7143 1172.63 54.3772C1176.09 50.3657 1180.09 47.7472 1183.94 46.3543C1187.22 33.5957 1188.72 19.0543 1187.89 3.23145C1164.28 13.4272 1147.13 32.5372 1137.39 47.58C1138.17 51.48 1138.61 63.8486 1137.11 67.0243C1134.72 63.9043 1132.94 60.6729 1131.77 57.4972C1121.97 79.1143 1117.46 100.007 1124.31 109.869C1135.39 125.747 1168.85 89.2543 1180.65 56.94Z" fill="#8473B4"/>
<g clip-path="url(#clip0_1_266)">
<path d="M1124.92 10.14C1124.92 10.14 1144.68 17.7729 1141.29 59.67C1136.05 62.6786 1129.04 66.2443 1129.04 66.2443C1140.01 64.7957 1145.3 69.81 1145.3 69.81C1136.89 73.32 1129.65 74.5457 1129.65 74.5457C1140.28 75.1029 1145.91 78.1114 1145.91 78.1114C1145.91 78.1114 1136.39 111.15 1121.74 112.32C1107.1 113.546 1094.85 87.5272 1091.79 55.9929C1095.46 53.5972 1099.81 53.2072 1099.81 53.2072C1093.29 48.5829 1090.73 41.6186 1090.73 41.6186C1090.73 41.6186 1100.7 33.8186 1112.28 40.2814C1108.44 32.8714 1102.31 28.9157 1102.31 28.9157C1106.43 22.5643 1115.68 10.3629 1124.92 10.14Z" fill="#2F4A71"/>
</g>
<path fill-rule="evenodd" clip-rule="evenodd" d="M3.03833 74.3743H973.609C973.609 74.3743 1104.64 75.9776 1179.32 145.119C1253.89 214.26 1325.6 217.333 1466.06 217.333H3.03833V74.3743Z" fill="url(#paint0_linear_1_266)"/>
<mask id="mask0_1_266" style="mask-type:luminance" maskUnits="userSpaceOnUse" x="953" y="393" width="9" height="9">
<path d="M953.452 393.325H961.27V401.2H953.452V393.325Z" fill="white"/>
</mask>
<g mask="url(#mask0_1_266)">
<path fill-rule="evenodd" clip-rule="evenodd" d="M961.27 397.263C961.27 398.307 960.858 399.309 960.125 400.047C959.392 400.786 958.398 401.2 957.361 401.2C956.324 401.2 955.33 400.786 954.597 400.047C953.864 399.309 953.452 398.307 953.452 397.263C953.452 396.219 953.864 395.217 954.597 394.479C955.33 393.74 956.324 393.325 957.361 393.325C958.398 393.325 959.392 393.74 960.125 394.479C960.858 395.217 961.27 396.219 961.27 397.263Z" fill="#0055FF"/>
</g>
<path fill-rule="evenodd" clip-rule="evenodd" d="M844.081 299.473C844.081 300.136 843.82 300.772 843.354 301.241C842.889 301.71 842.258 301.973 841.6 301.973C840.941 301.973 840.31 301.71 839.845 301.241C839.379 300.772 839.118 300.136 839.118 299.473C839.118 298.81 839.379 298.174 839.845 297.705C840.31 297.236 840.941 296.973 841.6 296.973C842.258 296.973 842.889 297.236 843.354 297.705C843.82 298.174 844.081 298.81 844.081 299.473ZM935.414 349.473C935.414 350.136 935.153 350.772 934.687 351.241C934.222 351.71 933.59 351.973 932.932 351.973C932.274 351.973 931.643 351.71 931.177 351.241C930.712 350.772 930.45 350.136 930.45 349.473C930.45 348.81 930.712 348.174 931.177 347.705C931.643 347.236 932.274 346.973 932.932 346.973C933.59 346.973 934.222 347.236 934.687 347.705C935.153 348.174 935.414 348.81 935.414 349.473Z" fill="#FCD07F"/>
<path fill-rule="evenodd" clip-rule="evenodd" d="M885.777 415.473C885.777 416.136 885.515 416.772 885.05 417.241C884.584 417.71 883.953 417.973 883.295 417.973C882.637 417.973 882.005 417.71 881.54 417.241C881.074 416.772 880.813 416.136 880.813 415.473C880.813 414.81 881.074 414.174 881.54 413.705C882.005 413.236 882.637 412.973 883.295 412.973C883.953 412.973 884.584 413.236 885.05 413.705C885.515 414.174 885.777 414.81 885.777 415.473Z" fill="#0055FF"/>
<mask id="mask1_1_266" style="mask-type:luminance" maskUnits="userSpaceOnUse" x="896" y="434" width="6" height="6">
<path d="M896.256 434.723H901.468V439.973H896.256V434.723Z" fill="white"/>
</mask>
<g mask="url(#mask1_1_266)">
<path fill-rule="evenodd" clip-rule="evenodd" d="M901.468 437.348C901.468 438.044 901.193 438.712 900.705 439.204C900.216 439.696 899.553 439.973 898.862 439.973C898.171 439.973 897.508 439.696 897.019 439.204C896.531 438.712 896.256 438.044 896.256 437.348C896.256 436.652 896.531 435.984 897.019 435.492C897.508 435 898.171 434.723 898.862 434.723C899.553 434.723 900.216 435 900.705 435.492C901.193 435.984 901.468 436.652 901.468 437.348Z" fill="#0055FF"/>
</g>
<mask id="mask2_1_266" style="mask-type:luminance" maskUnits="userSpaceOnUse" x="743" y="250" width="71" height="70">
<path d="M743.814 250H813.147V319.838H743.814V250Z" fill="white"/>
</mask>
<g mask="url(#mask2_1_266)">
<path fill-rule="evenodd" clip-rule="evenodd" d="M813.147 284.919C813.147 304.204 797.626 319.839 778.481 319.839C759.335 319.838 743.814 304.203 743.814 284.918C743.814 265.634 759.335 249.999 778.481 249.999C797.626 249.999 813.147 265.634 813.147 284.919Z" fill="#FFD480"/>
</g>
<defs>
<linearGradient id="paint0_linear_1_266" x1="734.551" y1="74.3743" x2="734.884" y2="217" gradientUnits="userSpaceOnUse">
<stop stop-color="#2F4A71"/>
<stop offset="1" stop-color="#3C4E7A"/>
</linearGradient>
<clipPath id="clip0_1_266">
<rect width="55.677" height="111.429" fill="white" transform="translate(1090.51 5.57141)"/>
</clipPath>
</defs>
</svg>
