<svg width="150" height="178" viewBox="0 0 150 178" fill="none" xmlns="http://www.w3.org/2000/svg">
<path d="M186.999 38.175C186.999 38.175 212.412 70.1078 167.059 136.725C155.488 136.649 140.575 135.83 140.575 135.83C160.038 144.115 164.142 157.564 164.142 157.564C146.869 155.231 133.795 150.346 133.795 150.346C150.874 161.636 157.362 172.08 157.362 172.08C157.362 172.08 110.192 218.126 84.8748 205.798C59.558 193.469 63.7524 138.118 88.5765 82.5455C97.0147 82.1839 104.534 85.7456 104.534 85.7456C98.1866 71.6028 100.517 57.5169 100.517 57.5169C100.517 57.5169 124.343 54.1793 137.5 76.1127C138.184 60.0631 131.812 47.5125 131.812 47.5125C144.623 41.0118 171.507 29.4752 186.999 38.175Z" fill="#8473B4" fill-opacity="0.5"/>
<path d="M70.0933 0C70.0933 0 110.62 15.9197 103.656 103.304C92.925 109.579 78.5411 117.016 78.5411 117.016C101.03 113.994 111.875 124.453 111.875 124.453C94.6374 131.773 79.7968 134.33 79.7968 134.33C101.601 135.492 113.131 141.767 113.131 141.767C113.131 141.767 93.61 210.675 63.5863 213.115C33.5626 215.671 8.44773 161.405 2.16901 95.6344C9.70348 90.6377 18.6078 89.8243 18.6078 89.8243C5.25129 80.1795 0 65.6542 0 65.6542C0 65.6542 20.4344 49.3859 44.1794 62.8654C36.3024 47.4105 23.745 39.1601 23.745 39.1601C32.1927 25.9131 51.143 0.464809 70.0933 0Z" fill="#213E6E" fill-opacity="0.5"/>
</svg>
