<svg width="101" height="117" viewBox="0 0 101 117" fill="none" xmlns="http://www.w3.org/2000/svg">
<path d="M90.6509 56.94C88.1454 56.4943 85.4729 55.7143 82.6334 54.3772C86.0854 50.3657 90.0941 47.7472 93.9358 46.3543C97.2207 33.5957 98.724 19.0543 97.8889 3.23145C74.2818 13.4272 57.1333 32.5372 47.3898 47.58C48.1693 51.48 48.6147 63.8486 47.1115 67.0243C44.7174 63.9043 42.9357 60.6729 41.7665 57.4972C31.9673 79.1143 27.4575 100.007 34.3058 109.869C45.3855 125.747 78.8473 89.2543 90.6509 56.94Z" fill="#8473B4"/>
<g clip-path="url(#clip0_1_267)">
<path d="M34.9181 10.14C34.9181 10.14 54.6834 17.7729 51.2871 59.67C46.0535 62.6786 39.0382 66.2443 39.0382 66.2443C50.0065 64.7957 55.2959 69.81 55.2959 69.81C46.8886 73.32 39.6506 74.5457 39.6506 74.5457C50.2849 75.1029 55.9083 78.1114 55.9083 78.1114C55.9083 78.1114 46.3875 111.15 31.7445 112.32C17.1015 113.546 4.85252 87.5272 1.79028 55.9929C5.46496 53.5972 9.80777 53.2072 9.80777 53.2072C3.29356 48.5829 0.732422 41.6186 0.732422 41.6186C0.732422 41.6186 10.6986 33.8186 22.2794 40.2814C18.4377 32.8714 12.3132 28.9157 12.3132 28.9157C16.4333 22.5643 25.6757 10.3629 34.9181 10.14Z" fill="#2F4A71"/>
</g>
<defs>
<clipPath id="clip0_1_267">
<rect width="55.677" height="111.429" fill="white" transform="translate(0.509766 5.57141)"/>
</clipPath>
</defs>
</svg>
