<svg width="140" height="122" viewBox="0 0 140 122" fill="none" xmlns="http://www.w3.org/2000/svg">
<mask id="mask0_1_466" style="mask-type:luminance" maskUnits="userSpaceOnUse" x="134" y="91" width="6" height="6">
<path d="M134.967 91.5996H140V96.6328H134.967V91.5996Z" fill="white"/>
</mask>
<g mask="url(#mask0_1_466)">
<path fill-rule="evenodd" clip-rule="evenodd" d="M140 94.1177C140 94.7851 139.735 95.4252 139.263 95.8972C138.791 96.3691 138.151 96.6343 137.483 96.6343C136.816 96.6343 136.176 96.3691 135.704 95.8972C135.232 95.4252 134.967 94.7851 134.967 94.1177C134.967 93.4502 135.232 92.8101 135.704 92.3382C136.176 91.8662 136.816 91.6011 137.483 91.6011C138.151 91.6011 138.791 91.8662 139.263 92.3382C139.735 92.8101 140 93.4502 140 94.1177Z" fill="#0055FF"/>
</g>
<path fill-rule="evenodd" clip-rule="evenodd" d="M64.5531 31.6198C64.5531 32.0436 64.3848 32.45 64.0851 32.7497C63.7855 33.0493 63.379 33.2177 62.9553 33.2177C62.5315 33.2177 62.1251 33.0493 61.8254 32.7497C61.5258 32.45 61.3574 32.0436 61.3574 31.6198C61.3574 31.196 61.5258 30.7896 61.8254 30.49C62.1251 30.1903 62.5315 30.022 62.9553 30.022C63.379 30.022 63.7855 30.1903 64.0851 30.49C64.3848 30.7896 64.5531 31.196 64.5531 31.6198ZM123.354 63.5767C123.354 64.0005 123.185 64.4069 122.886 64.7066C122.586 65.0062 122.18 65.1746 121.756 65.1746C121.332 65.1746 120.926 65.0062 120.626 64.7066C120.326 64.4069 120.158 64.0005 120.158 63.5767C120.158 63.1529 120.326 62.7465 120.626 62.4469C120.926 62.1472 121.332 61.9789 121.756 61.9789C122.18 61.9789 122.586 62.1472 122.886 62.4469C123.185 62.7465 123.354 63.1529 123.354 63.5767Z" fill="#FCD07F"/>
<path fill-rule="evenodd" clip-rule="evenodd" d="M91.3969 105.76C91.3969 106.184 91.2285 106.59 90.9289 106.89C90.6292 107.189 90.2228 107.358 89.799 107.358C89.3752 107.358 88.9688 107.189 88.6692 106.89C88.3695 106.59 88.2012 106.184 88.2012 105.76C88.2012 105.336 88.3695 104.93 88.6692 104.63C88.9688 104.33 89.3752 104.162 89.799 104.162C90.2228 104.162 90.6292 104.33 90.9289 104.63C91.2285 104.93 91.3969 105.336 91.3969 105.76Z" fill="#0055FF"/>
<mask id="mask1_1_466" style="mask-type:luminance" maskUnits="userSpaceOnUse" x="98" y="118" width="4" height="4">
<path d="M98.1426 118.065H101.498V121.421H98.1426V118.065Z" fill="white"/>
</mask>
<g mask="url(#mask1_1_466)">
<path fill-rule="evenodd" clip-rule="evenodd" d="M101.499 119.742C101.499 120.187 101.322 120.614 101.007 120.929C100.693 121.243 100.266 121.42 99.8208 121.42C99.3758 121.42 98.9491 121.243 98.6345 120.929C98.3198 120.614 98.1431 120.187 98.1431 119.742C98.1431 119.297 98.3198 118.87 98.6345 118.556C98.9491 118.241 99.3758 118.064 99.8208 118.064C100.266 118.064 100.693 118.241 101.007 118.556C101.322 118.87 101.499 119.297 101.499 119.742Z" fill="#0055FF"/>
</g>
<mask id="mask2_1_466" style="mask-type:luminance" maskUnits="userSpaceOnUse" x="0" y="0" width="45" height="45">
<path d="M0 0H44.6374V44.6361H0V0Z" fill="white"/>
</mask>
<g mask="url(#mask2_1_466)">
<path fill-rule="evenodd" clip-rule="evenodd" d="M44.6374 22.3187C44.6374 34.6445 34.6445 44.6374 22.3187 44.6374C9.99228 44.6368 0 34.6438 0 22.3181C0 9.99292 9.99228 0 22.3187 0C34.6445 0 44.6374 9.99292 44.6374 22.3187Z" fill="#FFD480"/>
</g>
</svg>
