<svg width="219" height="190" viewBox="0 0 219 190" fill="none" xmlns="http://www.w3.org/2000/svg">
<mask id="mask0_1_274" style="mask-type:luminance" maskUnits="userSpaceOnUse" x="210" y="143" width="9" height="9">
<path d="M210.452 143.325H218.27V151.2H210.452V143.325Z" fill="white"/>
</mask>
<g mask="url(#mask0_1_274)">
<path fill-rule="evenodd" clip-rule="evenodd" d="M218.27 147.263C218.27 148.307 217.858 149.309 217.125 150.047C216.392 150.786 215.398 151.2 214.361 151.2C213.324 151.2 212.33 150.786 211.597 150.047C210.864 149.309 210.452 148.307 210.452 147.263C210.452 146.219 210.864 145.217 211.597 144.479C212.33 143.74 213.324 143.325 214.361 143.325C215.398 143.325 216.392 143.74 217.125 144.479C217.858 145.217 218.27 146.219 218.27 147.263Z" fill="#0055FF"/>
</g>
<path fill-rule="evenodd" clip-rule="evenodd" d="M101.081 49.473C101.081 50.1361 100.82 50.772 100.354 51.2408C99.889 51.7096 99.2578 51.973 98.5995 51.973C97.9413 51.973 97.31 51.7096 96.8446 51.2408C96.3792 50.772 96.1177 50.1361 96.1177 49.473C96.1177 48.81 96.3792 48.1741 96.8446 47.7053C97.31 47.2364 97.9413 46.973 98.5995 46.973C99.2578 46.973 99.889 47.2364 100.354 47.7053C100.82 48.1741 101.081 48.81 101.081 49.473ZM192.414 99.473C192.414 100.136 192.153 100.772 191.687 101.241C191.222 101.71 190.59 101.973 189.932 101.973C189.274 101.973 188.643 101.71 188.177 101.241C187.712 100.772 187.45 100.136 187.45 99.473C187.45 98.81 187.712 98.1741 188.177 97.7053C188.643 97.2364 189.274 96.973 189.932 96.973C190.59 96.973 191.222 97.2364 191.687 97.7053C192.153 98.1741 192.414 98.81 192.414 99.473Z" fill="#FCD07F"/>
<path fill-rule="evenodd" clip-rule="evenodd" d="M142.777 165.473C142.777 166.136 142.515 166.772 142.05 167.241C141.584 167.71 140.953 167.973 140.295 167.973C139.637 167.973 139.005 167.71 138.54 167.241C138.074 166.772 137.813 166.136 137.813 165.473C137.813 164.81 138.074 164.174 138.54 163.705C139.005 163.236 139.637 162.973 140.295 162.973C140.953 162.973 141.584 163.236 142.05 163.705C142.515 164.174 142.777 164.81 142.777 165.473Z" fill="#0055FF"/>
<mask id="mask1_1_274" style="mask-type:luminance" maskUnits="userSpaceOnUse" x="153" y="184" width="6" height="6">
<path d="M153.256 184.723H158.468V189.973H153.256V184.723Z" fill="white"/>
</mask>
<g mask="url(#mask1_1_274)">
<path fill-rule="evenodd" clip-rule="evenodd" d="M158.468 187.348C158.468 188.044 158.193 188.712 157.705 189.204C157.216 189.696 156.553 189.973 155.862 189.973C155.171 189.973 154.508 189.696 154.019 189.204C153.531 188.712 153.256 188.044 153.256 187.348C153.256 186.652 153.531 185.984 154.019 185.492C154.508 185 155.171 184.723 155.862 184.723C156.553 184.723 157.216 185 157.705 185.492C158.193 185.984 158.468 186.652 158.468 187.348Z" fill="#0055FF"/>
</g>
<mask id="mask2_1_274" style="mask-type:luminance" maskUnits="userSpaceOnUse" x="0" y="0" width="71" height="70">
<path d="M0.813965 0H70.1474V69.838H0.813965V0Z" fill="white"/>
</mask>
<g mask="url(#mask2_1_274)">
<path fill-rule="evenodd" clip-rule="evenodd" d="M70.1474 34.919C70.1474 54.204 54.6258 69.839 35.4807 69.839C16.3346 69.838 0.813965 54.203 0.813965 34.918C0.813965 15.634 16.3346 -0.000976562 35.4807 -0.000976562C54.6258 -0.000976562 70.1474 15.634 70.1474 34.919Z" fill="#FFD480"/>
</g>
</svg>
